<svg width="22" height="22" viewBox="0 0 22 22" fill="none" xmlns="http://www.w3.org/2000/svg">
<g opacity="0.4">
<path d="M11.0002 14.6663C13.0252 14.6663 14.6668 13.0247 14.6668 10.9997C14.6668 8.97463 13.0252 7.33301 11.0002 7.33301C8.97512 7.33301 7.3335 8.97463 7.3335 10.9997C7.3335 13.0247 8.97512 14.6663 11.0002 14.6663Z" stroke="white" stroke-width="2" stroke-linecap="round" stroke-linejoin="round"/>
<path d="M14.6668 7.33342V11.9167C14.6668 12.6461 14.9566 13.3456 15.4723 13.8613C15.988 14.377 16.6875 14.6667 17.4168 14.6667C18.1462 14.6667 18.8457 14.377 19.3614 13.8613C19.8771 13.3456 20.1668 12.6461 20.1668 11.9167V11.0001C20.1667 8.93119 19.4667 6.92319 18.1807 5.30257C16.8946 3.68195 15.0982 2.54404 13.0834 2.07385C11.0687 1.60367 8.95411 1.82887 7.08357 2.71284C5.21304 3.5968 3.69654 5.08754 2.78066 6.94266C1.86478 8.79778 1.60339 10.9082 2.03899 12.9307C2.47459 14.9532 3.58157 16.7689 5.17992 18.0825C6.77827 19.3961 8.77399 20.1304 10.8426 20.166C12.9112 20.2015 14.9309 19.5363 16.5735 18.2784" stroke="white" stroke-width="2" stroke-linecap="round" stroke-linejoin="round"/>
</g>
</svg>
