<svg width="24" height="24" viewBox="0 0 24 24" fill="none" xmlns="http://www.w3.org/2000/svg">
<path d="M5.5 12L4.79289 11.2929C4.40237 11.6834 4.40237 12.3166 4.79289 12.7071L5.5 12ZM19 13C19.5523 13 20 12.5523 20 12C20 11.4477 19.5523 11 19 11V13ZM12.7071 6.20711C13.0976 5.81658 13.0976 5.18342 12.7071 4.79289C12.3166 4.40237 11.6834 4.40237 11.2929 4.79289L12.7071 6.20711ZM11.2929 19.2071C11.6834 19.5976 12.3166 19.5976 12.7071 19.2071C13.0976 18.8166 13.0976 18.1834 12.7071 17.7929L11.2929 19.2071ZM5.5 13H19V11H5.5V13ZM6.20711 12.7071L12.7071 6.20711L11.2929 4.79289L4.79289 11.2929L6.20711 12.7071ZM4.79289 12.7071L11.2929 19.2071L12.7071 17.7929L6.20711 11.2929L4.79289 12.7071Z" fill="#242424"/>
</svg>
