<svg width="16" height="16" viewBox="0 0 16 16" fill="none" xmlns="http://www.w3.org/2000/svg">
<path d="M2.66634 1.33325C2.31272 1.33325 1.97358 1.47373 1.72353 1.72378C1.47348 1.97382 1.33301 2.31296 1.33301 2.66659" stroke="#0723DF" stroke-width="1.5" stroke-linecap="round" stroke-linejoin="round"/>
<path d="M5.33301 1.33325H6.66634" stroke="#0723DF" stroke-width="1.5" stroke-linecap="round" stroke-linejoin="round"/>
<path d="M9.33301 1.33325H10.6663" stroke="#0723DF" stroke-width="1.5" stroke-linecap="round" stroke-linejoin="round"/>
<path d="M2.66634 14.6666C2.31272 14.6666 1.97358 14.5261 1.72353 14.2761C1.47348 14.026 1.33301 13.6869 1.33301 13.3333" stroke="#0723DF" stroke-width="1.5" stroke-linecap="round" stroke-linejoin="round"/>
<path d="M14.667 5.33325V6.66658" stroke="#0723DF" stroke-width="1.5" stroke-linecap="round" stroke-linejoin="round"/>
<path d="M14.667 9.33325V10.6666" stroke="#0723DF" stroke-width="1.5" stroke-linecap="round" stroke-linejoin="round"/>
<path d="M14.6663 13.3333C14.6663 13.6869 14.5259 14.026 14.2758 14.2761C14.0258 14.5261 13.6866 14.6666 13.333 14.6666" stroke="#0723DF" stroke-width="1.5" stroke-linecap="round" stroke-linejoin="round"/>
<path d="M9.33301 14.6667H10.6663" stroke="#0723DF" stroke-width="1.5" stroke-linecap="round" stroke-linejoin="round"/>
<path d="M5.33301 14.6667H6.66634" stroke="#0723DF" stroke-width="1.5" stroke-linecap="round" stroke-linejoin="round"/>
<path d="M13.333 1.33325C13.6866 1.33325 14.0258 1.47373 14.2758 1.72378C14.5259 1.97382 14.6663 2.31296 14.6663 2.66659" stroke="#0723DF" stroke-width="1.5" stroke-linecap="round" stroke-linejoin="round"/>
<path d="M1.33301 9.33325V10.6666" stroke="#0723DF" stroke-width="1.5" stroke-linecap="round" stroke-linejoin="round"/>
<path d="M1.33301 5.33325V6.66658" stroke="#0723DF" stroke-width="1.5" stroke-linecap="round" stroke-linejoin="round"/>
</svg>
