<svg width="16" height="16" viewBox="0 0 16 16" fill="none" xmlns="http://www.w3.org/2000/svg">
<path d="M12.6668 10.6668H14.6668V8.56678C14.6673 8.40813 14.6112 8.25451 14.5085 8.13354C14.4059 8.01257 14.2634 7.93216 14.1068 7.90678L10.6668 7.33345L8.86683 4.93345C8.80473 4.85065 8.72421 4.78345 8.63164 4.73716C8.53907 4.69088 8.43699 4.66678 8.3335 4.66678H3.4935C3.24501 4.66505 3.00098 4.7328 2.78895 4.86237C2.57692 4.99195 2.40531 5.1782 2.2935 5.40011L1.76016 6.48678C1.48026 7.04319 1.33416 7.65727 1.3335 8.28011V10.6668H2.66683M9.3335 10.6668H6.00016H9.3335Z" stroke="#0723DF" stroke-width="1.5" stroke-linecap="round" stroke-linejoin="round"/>
<path d="M4.33317 12.6666C5.25364 12.6666 5.99984 11.9204 5.99984 10.9999C5.99984 10.0794 5.25364 9.33325 4.33317 9.33325C3.4127 9.33325 2.6665 10.0794 2.6665 10.9999C2.6665 11.9204 3.4127 12.6666 4.33317 12.6666Z" stroke="#0723DF" stroke-width="1.5" stroke-linecap="round" stroke-linejoin="round"/>
<path d="M11.0002 12.6666C11.9206 12.6666 12.6668 11.9204 12.6668 10.9999C12.6668 10.0794 11.9206 9.33325 11.0002 9.33325C10.0797 9.33325 9.3335 10.0794 9.3335 10.9999C9.3335 11.9204 10.0797 12.6666 11.0002 12.6666Z" stroke="#0723DF" stroke-width="1.5" stroke-linecap="round" stroke-linejoin="round"/>
</svg>
