<svg width="16" height="16" viewBox="0 0 16 16" fill="none" xmlns="http://www.w3.org/2000/svg">
<path d="M10.667 2.6665H12.0003C12.3539 2.6665 12.6931 2.80698 12.9431 3.05703C13.1932 3.30708 13.3337 3.64622 13.3337 3.99984V13.3332C13.3337 13.6868 13.1932 14.0259 12.9431 14.276C12.6931 14.526 12.3539 14.6665 12.0003 14.6665H4.00033C3.6467 14.6665 3.30756 14.526 3.05752 14.276C2.80747 14.0259 2.66699 13.6868 2.66699 13.3332V3.99984C2.66699 3.64622 2.80747 3.30708 3.05752 3.05703C3.30756 2.80698 3.6467 2.6665 4.00033 2.6665H5.33366" stroke="#0723DF" stroke-width="1.5" stroke-linecap="round" stroke-linejoin="round"/>
<path d="M9.99967 1.3335H5.99967C5.82286 1.3335 5.65329 1.40373 5.52827 1.52876C5.40325 1.65378 5.33301 1.82335 5.33301 2.00016V3.3335C5.33301 3.51031 5.40325 3.67988 5.52827 3.8049C5.65329 3.92992 5.82286 4.00016 5.99967 4.00016H9.99967C10.1765 4.00016 10.3461 3.92992 10.4711 3.8049C10.5961 3.67988 10.6663 3.51031 10.6663 3.3335V2.00016C10.6663 1.82335 10.5961 1.65378 10.4711 1.52876C10.3461 1.40373 10.1765 1.3335 9.99967 1.3335V1.3335Z" stroke="#0723DF" stroke-width="1.5" stroke-linecap="round" stroke-linejoin="round"/>
<path d="M6 8.66683L7.33333 10.0002L10 7.3335" stroke="#0723DF" stroke-width="1.5" stroke-linecap="round" stroke-linejoin="round"/>
</svg>
