<svg width="16" height="17" viewBox="0 0 16 17" fill="none" xmlns="http://www.w3.org/2000/svg">
<path d="M4.66667 11.2904C6.13333 11.2904 7.33333 10.0704 7.33333 8.59036C7.33333 7.81703 6.95333 7.0837 6.19333 6.4637C5.43333 5.8437 4.86 4.9237 4.66667 3.95703C4.47333 4.9237 3.90667 5.85036 3.14 6.4637C2.37333 7.07703 2 7.8237 2 8.59036C2 10.0704 3.2 11.2904 4.66667 11.2904Z" stroke="white" stroke-width="1.5" stroke-linecap="round" stroke-linejoin="round"/>
<path d="M8.3729 4.82368C8.83141 4.0911 9.15644 3.28304 9.3329 2.43701C9.66624 4.10368 10.6662 5.70368 11.9996 6.77035C13.3329 7.83701 13.9996 9.10368 13.9996 10.437C14.0034 11.3585 13.7335 12.2604 13.2241 13.0284C12.7147 13.7964 11.9888 14.3958 11.1383 14.7507C10.2879 15.1056 9.35118 15.2 8.44702 15.0219C7.54285 14.8438 6.71193 14.4012 6.05957 13.7503" stroke="white" stroke-width="1.5" stroke-linecap="round" stroke-linejoin="round"/>
</svg>
