<svg width="16" height="16" viewBox="0 0 16 16" fill="none" xmlns="http://www.w3.org/2000/svg">
<path d="M10.0002 8L4.33352 13.6667C3.78019 14.22 2.88686 14.22 2.33352 13.6667C2.2021 13.5354 2.09783 13.3795 2.0267 13.2079C1.95556 13.0363 1.91895 12.8524 1.91895 12.6667C1.91895 12.4809 1.95556 12.297 2.0267 12.1254C2.09783 11.9538 2.2021 11.7979 2.33352 11.6667L8.00019 6" stroke="#0723DF" stroke-width="1.5" stroke-linecap="round" stroke-linejoin="round"/>
<path d="M11.7598 9.99993L14.6664 7.09326" stroke="#0723DF" stroke-width="1.5" stroke-linecap="round" stroke-linejoin="round"/>
<path d="M13.94 7.80005L13.1067 6.96672C12.7067 6.56672 12.4867 6.03339 12.4867 5.46672V4.89339L10.6733 3.06672C10.3291 2.72047 9.91984 2.44563 9.46908 2.258C9.01831 2.07037 8.53492 1.97365 8.04667 1.97339H6L6.61333 2.52006C7.04897 2.90632 7.3978 3.38052 7.63681 3.91142C7.87583 4.44231 7.99961 5.01784 8 5.60005V6.64006L9.33333 7.97339H10.98L12.4867 9.24672" stroke="#0723DF" stroke-width="1.5" stroke-linecap="round" stroke-linejoin="round"/>
</svg>
