<svg width="16" height="17" viewBox="0 0 16 17" fill="none" xmlns="http://www.w3.org/2000/svg">
<path d="M8.00016 15.1666C11.6821 15.1666 14.6668 12.1818 14.6668 8.49992C14.6668 4.81802 11.6821 1.83325 8.00016 1.83325C4.31826 1.83325 1.3335 4.81802 1.3335 8.49992C1.3335 12.1818 4.31826 15.1666 8.00016 15.1666Z" stroke="#0723DF" stroke-width="1.5" stroke-linecap="round" stroke-linejoin="round"/>
<path d="M6.06006 6.49989C6.21679 6.05434 6.52616 5.67863 6.93336 5.43931C7.34056 5.2 7.81932 5.11252 8.28484 5.19237C8.75036 5.27222 9.1726 5.51424 9.47678 5.87558C9.78095 6.23691 9.94743 6.69424 9.94672 7.16656C9.94672 8.49989 7.94673 9.16656 7.94673 9.16656" stroke="#0723DF" stroke-width="1.5" stroke-linecap="round" stroke-linejoin="round"/>
<path d="M8 11.8333H8.00667" stroke="#0723DF" stroke-width="1.5" stroke-linecap="round" stroke-linejoin="round"/>
</svg>
