<svg width="16" height="17" viewBox="0 0 16 17" fill="none" xmlns="http://www.w3.org/2000/svg">
<path d="M6 12.4238H10" stroke="white" stroke-width="1.5" stroke-linecap="round" stroke-linejoin="round"/>
<path d="M6.66699 15.0903H9.33366" stroke="white" stroke-width="1.5" stroke-linecap="round" stroke-linejoin="round"/>
<path d="M10.06 9.75732C10.18 9.10399 10.4933 8.59732 11 8.09066C11.3219 7.79432 11.5774 7.4332 11.7498 7.03105C11.9222 6.62889 12.0074 6.1948 12 5.75732C12 4.69646 11.5786 3.67904 10.8284 2.9289C10.0783 2.17875 9.06087 1.75732 8 1.75732C6.93913 1.75732 5.92172 2.17875 5.17157 2.9289C4.42143 3.67904 4 4.69646 4 5.75732C4 6.42399 4.15333 7.24399 5 8.09066C5.4827 8.53203 5.812 9.1159 5.94 9.75732" stroke="white" stroke-width="1.5" stroke-linecap="round" stroke-linejoin="round"/>
</svg>
