<svg width="178" height="46" viewBox="0 0 178 46" fill="none" xmlns="http://www.w3.org/2000/svg">
<path d="M30 16.5V42H15V27H0V12H26.25V13.5H15V27H28.5V16.5H30Z" fill="#0723DF"/>
<path d="M0 42V30H1.5V40.5H12V42H0Z" fill="#0723DF"/>
<path d="M49.2552 25V18.1386L52.7955 25H53.891L57.4313 18.1386V25H60.0836V12.5457H57.8118L53.3375 21.1484L48.8747 12.5457H46.5914V25H49.2552ZM68.8047 25.346C72.5295 25.346 75.0203 22.659 75.0203 18.7728C75.0203 14.9212 72.564 12.1997 68.8047 12.1997C65.126 12.1997 62.6121 14.8636 62.6121 18.7728C62.6121 22.6245 65.0568 25.346 68.8047 25.346ZM68.8047 22.7398C66.6598 22.7398 65.5527 21.1945 65.5527 18.7728C65.5527 16.4203 66.5675 14.8059 68.8047 14.8059C70.9842 14.8059 72.0797 16.3627 72.0797 18.7728C72.0797 21.1138 71.0073 22.7398 68.8047 22.7398ZM83.3155 11.1388C85.2528 11.1388 86.8096 9.58199 86.8096 7.64465H84.6416C84.6416 8.38269 84.0535 8.97081 83.3155 8.97081C82.5774 8.97081 81.9893 8.38269 81.9893 7.64465H79.8213C79.8213 9.58199 81.3781 11.1388 83.3155 11.1388ZM86.1523 12.5457L80.2019 20.468V12.5457H77.538V25H79.7637L85.691 16.8701V25H88.3549V12.5457H86.1523Z" fill="#0723DF"/>
<path d="M98.9663 25V20.0644H104.559V25H107.338V12.5457H104.559V17.4582H98.9663V12.5457H96.1871V25H98.9663ZM120.371 14.5176C119.552 12.8686 117.788 12.1997 115.574 12.1997C112.645 12.1997 110.926 13.5951 110.315 15.6938L112.852 16.4895C113.267 15.221 114.455 14.7482 115.574 14.7482C117.269 14.7482 118.018 15.4171 118.122 16.847C115.943 17.1699 114.017 17.4351 112.702 17.8618C110.73 18.5422 109.865 19.7761 109.865 21.5866C109.865 23.6392 111.33 25.346 114.04 25.346C116.023 25.346 117.35 24.7117 118.41 23.3279V25H120.844V17.3544C120.844 16.282 120.809 15.394 120.371 14.5176ZM117.811 21.0677C117.534 21.9325 116.485 23.1318 114.593 23.1318C113.279 23.1318 112.587 22.463 112.587 21.552C112.587 20.7448 113.14 20.272 114.098 19.9145C114.974 19.6147 116.104 19.4417 118.088 19.1303C118.076 19.7069 118.041 20.5026 117.811 21.0677ZM125.541 27.7676V25H133.521V27.7676H136.15V22.8205H134.893V12.5457H125.622C125.495 15.3479 125.357 17.7004 125.045 19.73C124.711 22.0133 124.261 22.8205 122.923 22.8205V27.7676H125.541ZM126.648 22.8205C127.248 22.2093 127.444 21.4482 127.605 20.1451C127.813 18.669 127.963 16.5703 128.055 14.7252H132.126V22.8205H126.648ZM146.547 18.4615C147.239 17.6888 147.539 16.8586 147.539 15.9129C147.539 13.4682 145.371 12.1997 142.972 12.1997C141.046 12.1997 139.294 12.9723 137.921 14.1947L139.49 16.0859C140.412 15.371 141.635 14.7828 142.834 14.7828C143.826 14.7828 144.679 15.1749 144.679 16.1666C144.679 17.2852 143.618 17.4813 142.211 17.4813H141.3V19.6838H142.223C143.722 19.6838 145.094 19.6954 145.094 21.0446C145.094 22.0825 144.241 22.7398 142.845 22.7398C141.508 22.7398 140.424 22.1401 139.536 21.0792L137.345 22.5437C138.463 24.2966 140.516 25.346 142.892 25.346C145.625 25.346 147.931 23.9275 147.931 21.3214C147.931 20.1336 147.435 19.0842 146.547 18.4615ZM155.969 25.346C159.694 25.346 162.184 22.659 162.184 18.7728C162.184 14.9212 159.728 12.1997 155.969 12.1997C152.29 12.1997 149.776 14.8636 149.776 18.7728C149.776 22.6245 152.221 25.346 155.969 25.346ZM155.969 22.7398C153.824 22.7398 152.717 21.1945 152.717 18.7728C152.717 16.4203 153.732 14.8059 155.969 14.8059C158.148 14.8059 159.244 16.3627 159.244 18.7728C159.244 21.1138 158.171 22.7398 155.969 22.7398ZM170.606 12.1997C169.188 12.1997 168.035 12.6494 167.158 13.4451V12.5457H164.702V30.5353H167.504V24.3658C168.346 24.9885 169.419 25.346 170.71 25.346C174.158 25.346 176.395 22.5091 176.395 18.7728C176.395 14.9904 174.135 12.1997 170.606 12.1997ZM170.284 22.8551C168.046 22.8551 167.158 21.183 167.158 18.7728C167.158 16.3396 168.069 14.6906 170.191 14.6906C172.428 14.6906 173.455 16.5126 173.455 18.7728C173.455 21.0561 172.452 22.8551 170.284 22.8551Z" fill="#282828"/>
<path d="M48.2313 36.3182L46.6637 38.7327L45.6066 38.7267V38.6486L47.3784 36.3182H48.2313ZM46.6637 38.6786L48.2313 41.0991H47.3784L45.6066 38.7627V38.6846L46.6637 38.6786ZM50.2193 36.3182L48.6517 38.7327L47.5947 38.7267V38.6486L49.3665 36.3182H50.2193ZM48.6517 38.6786L50.2193 41.0991H49.3665L47.5947 38.7627V38.6846L48.6517 38.6786ZM55.0182 38.5705H52.6819V37.6275H55.0182C55.4707 37.6275 55.8371 37.5555 56.1174 37.4113C56.3977 37.2672 56.6019 37.067 56.73 36.8107C56.8621 36.5544 56.9282 36.2621 56.9282 35.9338C56.9282 35.6335 56.8621 35.3512 56.73 35.0869C56.6019 34.8227 56.3977 34.6104 56.1174 34.4503C55.8371 34.2861 55.4707 34.204 55.0182 34.204H52.9521V42H51.7929V33.2551H55.0182C55.6789 33.2551 56.2375 33.3692 56.694 33.5974C57.1504 33.8256 57.4968 34.142 57.733 34.5464C57.9693 34.9468 58.0874 35.4053 58.0874 35.9218C58.0874 36.4824 57.9693 36.9608 57.733 37.3573C57.4968 37.7537 57.1504 38.056 56.694 38.2642C56.2375 38.4684 55.6789 38.5705 55.0182 38.5705ZM61.9974 42.1201C61.5449 42.1201 61.1345 42.044 60.7661 41.8919C60.4017 41.7357 60.0874 41.5175 59.8232 41.2372C59.5629 40.9569 59.3627 40.6246 59.2225 40.2402C59.0824 39.8558 59.0123 39.4354 59.0123 38.9789V38.7267C59.0123 38.1981 59.0904 37.7276 59.2466 37.3152C59.4027 36.8988 59.6149 36.5464 59.8832 36.2581C60.1515 35.9698 60.4558 35.7516 60.7962 35.6035C61.1365 35.4553 61.4889 35.3812 61.8532 35.3812C62.3177 35.3812 62.7181 35.4613 63.0545 35.6215C63.3948 35.7816 63.6731 36.0059 63.8893 36.2942C64.1055 36.5785 64.2657 36.9148 64.3698 37.3032C64.4739 37.6876 64.526 38.108 64.526 38.5645V39.063H59.673V38.1561H63.4148V38.072C63.3988 37.7837 63.3388 37.5034 63.2346 37.2311C63.1345 36.9588 62.9744 36.7346 62.7542 36.5584C62.5339 36.3823 62.2336 36.2942 61.8532 36.2942C61.601 36.2942 61.3687 36.3482 61.1565 36.4563C60.9443 36.5604 60.7621 36.7166 60.61 36.9248C60.4578 37.133 60.3397 37.3873 60.2556 37.6876C60.1715 37.9879 60.1295 38.3343 60.1295 38.7267V38.9789C60.1295 39.2872 60.1715 39.5775 60.2556 39.8498C60.3437 40.1181 60.4698 40.3543 60.634 40.5585C60.8022 40.7627 61.0044 40.9229 61.2406 41.039C61.4809 41.1551 61.7531 41.2132 62.0574 41.2132C62.4498 41.2132 62.7822 41.1331 63.0545 40.9729C63.3267 40.8128 63.565 40.5986 63.7692 40.3303L64.4419 40.8648C64.3017 41.0771 64.1236 41.2793 63.9073 41.4715C63.6911 41.6637 63.4248 41.8198 63.1085 41.9399C62.7962 42.0601 62.4258 42.1201 61.9974 42.1201ZM69.5591 40.5225L71.7694 35.5014H72.8385L69.9435 42H69.1747L66.2918 35.5014H67.3609L69.5591 40.5225ZM67.0365 35.5014V42H65.9254V35.5014H67.0365ZM72.0457 42V35.5014H73.1628V42H72.0457ZM74.6583 38.8228V38.6846C74.6583 38.2161 74.7264 37.7817 74.8625 37.3813C74.9987 36.9769 75.1949 36.6265 75.4511 36.3302C75.7074 36.0299 76.0177 35.7977 76.3821 35.6335C76.7465 35.4653 77.1549 35.3812 77.6073 35.3812C78.0638 35.3812 78.4742 35.4653 78.8386 35.6335C79.207 35.7977 79.5193 36.0299 79.7756 36.3302C80.0358 36.6265 80.234 36.9769 80.3702 37.3813C80.5063 37.7817 80.5744 38.2161 80.5744 38.6846V38.8228C80.5744 39.2912 80.5063 39.7257 80.3702 40.1261C80.234 40.5265 80.0358 40.8769 79.7756 41.1772C79.5193 41.4735 79.209 41.7057 78.8446 41.8739C78.4842 42.038 78.0758 42.1201 77.6194 42.1201C77.1629 42.1201 76.7525 42.038 76.3881 41.8739C76.0237 41.7057 75.7114 41.4735 75.4511 41.1772C75.1949 40.8769 74.9987 40.5265 74.8625 40.1261C74.7264 39.7257 74.6583 39.2912 74.6583 38.8228ZM75.7695 38.6846V38.8228C75.7695 39.1471 75.8075 39.4534 75.8836 39.7417C75.9597 40.026 76.0738 40.2782 76.2259 40.4985C76.3821 40.7187 76.5763 40.8929 76.8085 41.021C77.0408 41.1451 77.311 41.2072 77.6194 41.2072C77.9237 41.2072 78.1899 41.1451 78.4182 41.021C78.6504 40.8929 78.8426 40.7187 78.9948 40.4985C79.1469 40.2782 79.261 40.026 79.3371 39.7417C79.4172 39.4534 79.4572 39.1471 79.4572 38.8228V38.6846C79.4572 38.3643 79.4172 38.062 79.3371 37.7777C79.261 37.4894 79.1449 37.2351 78.9888 37.0149C78.8366 36.7907 78.6444 36.6145 78.4122 36.4864C78.1839 36.3582 77.9157 36.2942 77.6073 36.2942C77.303 36.2942 77.0348 36.3582 76.8025 36.4864C76.5743 36.6145 76.3821 36.7907 76.2259 37.0149C76.0738 37.2351 75.9597 37.4894 75.8836 37.7777C75.8075 38.062 75.7695 38.3643 75.7695 38.6846ZM86.3763 38.3182V39.2192H82.9408V38.3182H86.3763ZM83.175 35.5014V42H82.0639V35.5014H83.175ZM87.2772 35.5014V42H86.1601V35.5014H87.2772ZM91.7158 35.5014V42H90.5986V35.5014H91.7158ZM93.896 35.5014V36.4023H88.4604V35.5014H93.896ZM102.208 32.6725H103.121C103.121 33.0649 103.061 33.3772 102.941 33.6094C102.821 33.8377 102.657 34.0138 102.449 34.138C102.245 34.2621 102.012 34.3562 101.752 34.4202C101.496 34.4843 101.229 34.5464 100.953 34.6064C100.609 34.6785 100.289 34.7926 99.9922 34.9488C99.6999 35.1009 99.4477 35.3172 99.2355 35.5975C99.0272 35.8777 98.8731 36.2421 98.773 36.6906C98.6769 37.139 98.6509 37.6936 98.6949 38.3543V38.9068H97.782V38.3543C97.782 37.6135 97.852 36.9669 97.9922 36.4143C98.1363 35.8617 98.3385 35.3952 98.5988 35.0149C98.8591 34.6345 99.1674 34.3322 99.5238 34.1079C99.8841 33.8837 100.281 33.7295 100.713 33.6455C101.025 33.5854 101.294 33.5213 101.518 33.4533C101.742 33.3812 101.912 33.2851 102.028 33.165C102.148 33.0448 102.208 32.8807 102.208 32.6725ZM100.893 35.8737C101.318 35.8737 101.696 35.9478 102.028 36.096C102.361 36.2441 102.643 36.4503 102.875 36.7146C103.107 36.9789 103.284 37.2912 103.404 37.6516C103.528 38.0079 103.59 38.3963 103.59 38.8167V38.9489C103.59 39.4013 103.524 39.8218 103.392 40.2102C103.264 40.5946 103.073 40.9309 102.821 41.2192C102.573 41.5035 102.269 41.7257 101.908 41.8859C101.552 42.046 101.145 42.1261 100.689 42.1261C100.232 42.1261 99.8241 42.046 99.4637 41.8859C99.1073 41.7257 98.803 41.5035 98.5508 41.2192C98.2985 40.9309 98.1063 40.5946 97.9742 40.2102C97.846 39.8218 97.782 39.4013 97.782 38.9489V38.8167C97.782 38.7166 97.8 38.6185 97.836 38.5224C97.8721 38.4263 97.9161 38.3282 97.9682 38.2281C98.0242 38.128 98.0743 38.0219 98.1183 37.9098C98.2665 37.5494 98.4687 37.2151 98.7249 36.9068C98.9852 36.5985 99.2955 36.3502 99.6559 36.162C100.02 35.9698 100.433 35.8737 100.893 35.8737ZM100.677 36.7807C100.269 36.7807 99.9322 36.8748 99.6679 37.063C99.4076 37.2511 99.2134 37.5014 99.0853 37.8137C98.9572 38.122 98.8931 38.4564 98.8931 38.8167V38.9489C98.8931 39.2532 98.9291 39.5415 99.0012 39.8138C99.0733 40.086 99.1814 40.3283 99.3256 40.5405C99.4737 40.7487 99.6599 40.9129 99.8841 41.033C100.112 41.1531 100.381 41.2132 100.689 41.2132C100.997 41.2132 101.264 41.1531 101.488 41.033C101.712 40.9129 101.896 40.7487 102.04 40.5405C102.184 40.3283 102.293 40.086 102.365 39.8138C102.437 39.5415 102.473 39.2532 102.473 38.9489V38.8167C102.473 38.5445 102.437 38.2862 102.365 38.042C102.293 37.7977 102.182 37.5815 102.034 37.3933C101.89 37.2051 101.704 37.0569 101.476 36.9488C101.252 36.8367 100.985 36.7807 100.677 36.7807ZM107.548 42.1201C107.095 42.1201 106.685 42.044 106.317 41.8919C105.952 41.7357 105.638 41.5175 105.374 41.2372C105.113 40.9569 104.913 40.6246 104.773 40.2402C104.633 39.8558 104.563 39.4354 104.563 38.9789V38.7267C104.563 38.1981 104.641 37.7276 104.797 37.3152C104.953 36.8988 105.166 36.5464 105.434 36.2581C105.702 35.9698 106.006 35.7516 106.347 35.6035C106.687 35.4553 107.039 35.3812 107.404 35.3812C107.868 35.3812 108.269 35.4613 108.605 35.6215C108.945 35.7816 109.224 36.0059 109.44 36.2942C109.656 36.5785 109.816 36.9148 109.92 37.3032C110.024 37.6876 110.077 38.108 110.077 38.5645V39.063H105.224V38.1561H108.965V38.072C108.949 37.7837 108.889 37.5034 108.785 37.2311C108.685 36.9588 108.525 36.7346 108.305 36.5584C108.085 36.3823 107.784 36.2942 107.404 36.2942C107.152 36.2942 106.919 36.3482 106.707 36.4563C106.495 36.5604 106.313 36.7166 106.161 36.9248C106.008 37.133 105.89 37.3873 105.806 37.6876C105.722 37.9879 105.68 38.3343 105.68 38.7267V38.9789C105.68 39.2872 105.722 39.5775 105.806 39.8498C105.894 40.1181 106.02 40.3543 106.185 40.5585C106.353 40.7627 106.555 40.9229 106.791 41.039C107.031 41.1551 107.304 41.2132 107.608 41.2132C108 41.2132 108.333 41.1331 108.605 40.9729C108.877 40.8128 109.116 40.5986 109.32 40.3303L109.992 40.8648C109.852 41.0771 109.674 41.2793 109.458 41.4715C109.242 41.6637 108.975 41.8198 108.659 41.9399C108.347 42.0601 107.976 42.1201 107.548 42.1201ZM113.8 38.8948H112.605V38.2101H113.71C114.019 38.2101 114.263 38.1721 114.443 38.096C114.623 38.0159 114.751 37.9058 114.827 37.7657C114.903 37.6255 114.942 37.4614 114.942 37.2732C114.942 37.105 114.897 36.9468 114.809 36.7987C114.725 36.6465 114.589 36.5244 114.401 36.4323C114.213 36.3362 113.961 36.2882 113.644 36.2882C113.388 36.2882 113.156 36.3342 112.947 36.4263C112.739 36.5144 112.573 36.6365 112.449 36.7927C112.329 36.9448 112.269 37.117 112.269 37.3092H111.158C111.158 36.9128 111.27 36.5724 111.494 36.2882C111.722 35.9999 112.025 35.7776 112.401 35.6215C112.781 35.4653 113.196 35.3872 113.644 35.3872C114.021 35.3872 114.357 35.4293 114.653 35.5134C114.954 35.5934 115.208 35.7136 115.416 35.8737C115.624 36.0299 115.782 36.2261 115.89 36.4623C116.003 36.6946 116.059 36.9649 116.059 37.2732C116.059 37.4934 116.007 37.7016 115.903 37.8978C115.798 38.094 115.648 38.2682 115.452 38.4203C115.256 38.5685 115.018 38.6846 114.737 38.7687C114.461 38.8528 114.149 38.8948 113.8 38.8948ZM112.605 38.4744H113.8C114.189 38.4744 114.531 38.5124 114.827 38.5885C115.124 38.6606 115.372 38.7687 115.572 38.9128C115.772 39.057 115.923 39.2352 116.023 39.4474C116.127 39.6556 116.179 39.8958 116.179 40.1681C116.179 40.4724 116.117 40.7467 115.993 40.991C115.872 41.2312 115.7 41.4354 115.476 41.6036C115.252 41.7718 114.984 41.8999 114.671 41.988C114.363 42.0761 114.021 42.1201 113.644 42.1201C113.224 42.1201 112.815 42.048 112.419 41.9039C112.023 41.7598 111.696 41.5375 111.44 41.2372C111.184 40.9329 111.056 40.5465 111.056 40.078H112.167C112.167 40.2742 112.229 40.4604 112.353 40.6366C112.477 40.8128 112.649 40.9549 112.869 41.063C113.094 41.1712 113.352 41.2252 113.644 41.2252C113.957 41.2252 114.217 41.1772 114.425 41.0811C114.633 40.985 114.789 40.8568 114.893 40.6967C115.002 40.5365 115.056 40.3623 115.056 40.1741C115.056 39.9299 115.008 39.7337 114.911 39.5855C114.815 39.4374 114.667 39.3293 114.467 39.2612C114.271 39.1891 114.019 39.1531 113.71 39.1531H112.605V38.4744ZM121.422 35.5014L122.846 37.8678L124.287 35.5014H125.59L123.464 38.7086L125.656 42H124.371L122.87 39.5615L121.368 42H120.077L122.263 38.7086L120.143 35.5014H121.422ZM131.116 35.5014V36.4203H127.975V35.5014H131.116ZM132.095 35.5014V42H130.984V35.5014H132.095ZM127.705 35.5014H128.822L128.654 38.6366C128.626 39.1211 128.579 39.5495 128.515 39.9219C128.455 40.2903 128.371 40.6066 128.263 40.8708C128.159 41.1351 128.027 41.3513 127.867 41.5195C127.711 41.6837 127.522 41.8058 127.302 41.8859C127.082 41.962 126.828 42 126.539 42H126.191V41.021L126.431 41.003C126.603 40.991 126.75 40.9509 126.87 40.8829C126.994 40.8148 127.098 40.7147 127.182 40.5826C127.266 40.4464 127.334 40.2722 127.386 40.06C127.442 39.8478 127.484 39.5955 127.512 39.3032C127.544 39.0109 127.568 38.6706 127.584 38.2822L127.705 35.5014ZM133.591 38.8228V38.6846C133.591 38.2161 133.659 37.7817 133.795 37.3813C133.931 36.9769 134.127 36.6265 134.383 36.3302C134.64 36.0299 134.95 35.7977 135.314 35.6335C135.679 35.4653 136.087 35.3812 136.54 35.3812C136.996 35.3812 137.406 35.4653 137.771 35.6335C138.139 35.7977 138.452 36.0299 138.708 36.3302C138.968 36.6265 139.166 36.9769 139.302 37.3813C139.439 37.7817 139.507 38.2161 139.507 38.6846V38.8228C139.507 39.2912 139.439 39.7257 139.302 40.1261C139.166 40.5265 138.968 40.8769 138.708 41.1772C138.452 41.4735 138.141 41.7057 137.777 41.8739C137.417 42.038 137.008 42.1201 136.552 42.1201C136.095 42.1201 135.685 42.038 135.32 41.8739C134.956 41.7057 134.644 41.4735 134.383 41.1772C134.127 40.8769 133.931 40.5265 133.795 40.1261C133.659 39.7257 133.591 39.2912 133.591 38.8228ZM134.702 38.6846V38.8228C134.702 39.1471 134.74 39.4534 134.816 39.7417C134.892 40.026 135.006 40.2782 135.158 40.4985C135.314 40.7187 135.509 40.8929 135.741 41.021C135.973 41.1451 136.243 41.2072 136.552 41.2072C136.856 41.2072 137.122 41.1451 137.35 41.021C137.583 40.8929 137.775 40.7187 137.927 40.4985C138.079 40.2782 138.193 40.026 138.269 39.7417C138.349 39.4534 138.389 39.1471 138.389 38.8228V38.6846C138.389 38.3643 138.349 38.062 138.269 37.7777C138.193 37.4894 138.077 37.2351 137.921 37.0149C137.769 36.7907 137.577 36.6145 137.344 36.4864C137.116 36.3582 136.848 36.2942 136.54 36.2942C136.235 36.2942 135.967 36.3582 135.735 36.4864C135.507 36.6145 135.314 36.7907 135.158 37.0149C135.006 37.2351 134.892 37.4894 134.816 37.7777C134.74 38.062 134.702 38.3643 134.702 38.6846ZM145.23 35.5014V36.4203H141.945V35.5014H145.23ZM142.107 35.5014V42H140.996V35.5014H142.107ZM146.216 35.5014V42H145.098V35.5014H146.216ZM147.705 38.8228V38.6846C147.705 38.2161 147.773 37.7817 147.909 37.3813C148.045 36.9769 148.242 36.6265 148.498 36.3302C148.754 36.0299 149.064 35.7977 149.429 35.6335C149.793 35.4653 150.202 35.3812 150.654 35.3812C151.111 35.3812 151.521 35.4653 151.885 35.6335C152.254 35.7977 152.566 36.0299 152.822 36.3302C153.083 36.6265 153.281 36.9769 153.417 37.3813C153.553 37.7817 153.621 38.2161 153.621 38.6846V38.8228C153.621 39.2912 153.553 39.7257 153.417 40.1261C153.281 40.5265 153.083 40.8769 152.822 41.1772C152.566 41.4735 152.256 41.7057 151.891 41.8739C151.531 42.038 151.123 42.1201 150.666 42.1201C150.21 42.1201 149.799 42.038 149.435 41.8739C149.07 41.7057 148.758 41.4735 148.498 41.1772C148.242 40.8769 148.045 40.5265 147.909 40.1261C147.773 39.7257 147.705 39.2912 147.705 38.8228ZM148.816 38.6846V38.8228C148.816 39.1471 148.854 39.4534 148.93 39.7417C149.006 40.026 149.12 40.2782 149.273 40.4985C149.429 40.7187 149.623 40.8929 149.855 41.021C150.087 41.1451 150.358 41.2072 150.666 41.2072C150.97 41.2072 151.237 41.1451 151.465 41.021C151.697 40.8929 151.889 40.7187 152.041 40.4985C152.194 40.2782 152.308 40.026 152.384 39.7417C152.464 39.4534 152.504 39.1471 152.504 38.8228V38.6846C152.504 38.3643 152.464 38.062 152.384 37.7777C152.308 37.4894 152.192 37.2351 152.035 37.0149C151.883 36.7907 151.691 36.6145 151.459 36.4864C151.231 36.3582 150.962 36.2942 150.654 36.2942C150.35 36.2942 150.081 36.3582 149.849 36.4864C149.621 36.6145 149.429 36.7907 149.273 37.0149C149.12 37.2351 149.006 37.4894 148.93 37.7777C148.854 38.062 148.816 38.3643 148.816 38.6846ZM157.531 35.5014V42H156.414V35.5014H157.531ZM159.711 35.5014V36.4023H154.276V35.5014H159.711ZM160.576 41.0811L162.144 38.6666L163.201 38.6726V38.7507L161.429 41.0811H160.576ZM160.576 36.3002H161.429L163.201 38.6366V38.7146L162.144 38.7206L160.576 36.3002ZM162.672 41.0811L164.24 38.6666L165.297 38.6726V38.7507L163.525 41.0811H162.672ZM162.672 36.3002H163.525L165.297 38.6366V38.7146L164.24 38.7206L162.672 36.3002Z" fill="black"/>
</svg>
