<svg width="16" height="17" viewBox="0 0 16 17" fill="none" xmlns="http://www.w3.org/2000/svg">
<path d="M1.33301 15.0905V11.7572L4.66634 8.42383L7.99967 11.7572L4.66634 15.0905H1.33301Z" stroke="white" stroke-width="1.5" stroke-linecap="round" stroke-linejoin="round"/>
<path d="M6.33301 10.0907L10.6663 5.75732" stroke="white" stroke-width="1.5" stroke-linecap="round" stroke-linejoin="round"/>
<path d="M11.3338 1.75732L14.6671 5.09066L14.3338 5.42399C14.1152 5.6433 13.8554 5.81731 13.5694 5.93604C13.2834 6.05476 12.9768 6.11588 12.6671 6.11588C12.3575 6.11588 12.0509 6.05476 11.7649 5.93604C11.4789 5.81731 11.2191 5.6433 11.0005 5.42399C11.0005 5.42399 11.0005 5.42399 11.0005 5.42399C10.7812 5.20537 10.6072 4.94561 10.4884 4.65961C10.3697 4.37361 10.3086 4.06699 10.3086 3.75732C10.3086 3.44766 10.3697 3.14104 10.4884 2.85504C10.6072 2.56904 10.7812 2.30928 11.0005 2.09066L11.3338 1.75732Z" stroke="white" stroke-width="1.5" stroke-linecap="round" stroke-linejoin="round"/>
</svg>
