<svg width="16" height="16" viewBox="0 0 16 16" fill="none" xmlns="http://www.w3.org/2000/svg">
<path d="M1.33301 8H7.99967" stroke="#0723DF" stroke-width="1.5" stroke-linecap="round" stroke-linejoin="round"/>
<path d="M6 2.6665V13.3332" stroke="#0723DF" stroke-width="1.5" stroke-linecap="round" stroke-linejoin="round"/>
<path d="M2 6L4 8L2 10" stroke="#0723DF" stroke-width="1.5" stroke-linecap="round" stroke-linejoin="round"/>
<path d="M8 4L6 6L4 4" stroke="#0723DF" stroke-width="1.5" stroke-linecap="round" stroke-linejoin="round"/>
<path d="M4 12L6 10L7 11" stroke="#0723DF" stroke-width="1.5" stroke-linecap="round" stroke-linejoin="round"/>
<path d="M11.9997 1.3335C11.6461 1.3335 11.3069 1.47397 11.0569 1.72402C10.8068 1.97407 10.6663 2.31321 10.6663 2.66683V9.66683C10.158 9.96034 9.76064 10.4134 9.536 10.9557C9.31135 11.4981 9.27194 12.0994 9.42387 12.6664C9.57581 13.2334 9.91059 13.7345 10.3763 14.0918C10.842 14.4492 11.4127 14.6429 11.9997 14.6429C12.5867 14.6429 13.1573 14.4492 13.623 14.0918C14.0888 13.7345 14.4235 13.2334 14.5755 12.6664C14.7274 12.0994 14.688 11.4981 14.4634 10.9557C14.2387 10.4134 13.8414 9.96034 13.333 9.66683V2.66683C13.333 2.31321 13.1925 1.97407 12.9425 1.72402C12.6924 1.47397 12.3533 1.3335 11.9997 1.3335Z" stroke="#0723DF" stroke-width="1.5" stroke-linecap="round" stroke-linejoin="round"/>
</svg>
