<svg width="16" height="16" viewBox="0 0 16 16" fill="none" xmlns="http://www.w3.org/2000/svg">
<path d="M7.99967 5.99986C7.40482 5.99027 6.82384 6.17988 6.34917 6.53852C5.87449 6.89716 5.53337 7.40424 5.38008 7.97908C5.22679 8.55392 5.27013 9.16351 5.5032 9.71089C5.73627 10.2583 6.1457 10.712 6.66634 10.9999" stroke="#0723DF" stroke-width="1.5" stroke-linecap="round" stroke-linejoin="round"/>
<path d="M8 2V3.33333" stroke="#0723DF" stroke-width="1.5" stroke-linecap="round" stroke-linejoin="round"/>
<path d="M4.40013 12.2666L3.4668 13.1999" stroke="#0723DF" stroke-width="1.5" stroke-linecap="round" stroke-linejoin="round"/>
<path d="M11.9997 1.3335C12.3533 1.3335 12.6924 1.47397 12.9425 1.72402C13.1925 1.97407 13.333 2.31321 13.333 2.66683V9.66683C13.8414 9.96034 14.2387 10.4134 14.4634 10.9557C14.688 11.4981 14.7274 12.0994 14.5755 12.6664C14.4235 13.2334 14.0888 13.7345 13.623 14.0918C13.1573 14.4492 12.5867 14.6429 11.9997 14.6429C11.4127 14.6429 10.842 14.4492 10.3763 14.0918C9.91059 13.7345 9.57581 13.2334 9.42387 12.6664C9.27194 12.0994 9.31135 11.4981 9.536 10.9557C9.76064 10.4134 10.158 9.96034 10.6663 9.66683V2.66683C10.6663 1.9335 11.2663 1.3335 11.9997 1.3335Z" stroke="#0723DF" stroke-width="1.5" stroke-linecap="round" stroke-linejoin="round"/>
<path d="M2.66634 8.6665H1.33301" stroke="#0723DF" stroke-width="1.5" stroke-linecap="round" stroke-linejoin="round"/>
<path d="M4.40013 5.06663L3.4668 4.1333" stroke="#0723DF" stroke-width="1.5" stroke-linecap="round" stroke-linejoin="round"/>
</svg>
