<svg width="16" height="17" viewBox="0 0 16 17" fill="none" xmlns="http://www.w3.org/2000/svg">
<path d="M11.7997 5.55739C11.9948 5.3695 12.2328 5.232 12.4931 5.15681C12.7533 5.08161 13.028 5.07098 13.2932 5.12585C13.5585 5.18071 13.8064 5.2994 14.0155 5.47166C14.2246 5.64391 14.3885 5.86453 14.4931 6.11441C14.5977 6.36429 14.6398 6.63591 14.6158 6.90573C14.5918 7.17556 14.5024 7.43546 14.3553 7.66294C14.2082 7.89042 14.0079 8.07862 13.7717 8.21124C13.5354 8.34387 13.2705 8.41691 12.9997 8.42406H1.33301" stroke="white" stroke-width="1.5" stroke-linecap="round" stroke-linejoin="round"/>
<path d="M6.39967 3.49069C6.55413 3.33316 6.74526 3.21642 6.95593 3.15092C7.1666 3.08543 7.39023 3.07324 7.60677 3.11544C7.82332 3.15764 8.026 3.25291 8.19667 3.39272C8.36733 3.53252 8.50064 3.71249 8.58464 3.91649C8.66864 4.12049 8.70071 4.34214 8.67797 4.56158C8.65523 4.78102 8.57839 4.99139 8.45435 5.17384C8.3303 5.35628 8.16293 5.50509 7.96722 5.60693C7.77152 5.70877 7.5536 5.76045 7.33301 5.75736H1.33301" stroke="white" stroke-width="1.5" stroke-linecap="round" stroke-linejoin="round"/>
<path d="M8.39967 13.3571C8.55413 13.5147 8.74526 13.6314 8.95593 13.6969C9.1666 13.7624 9.39023 13.7746 9.60677 13.7324C9.82332 13.6902 10.026 13.5949 10.1967 13.4551C10.3673 13.3153 10.5006 13.1353 10.5846 12.9313C10.6686 12.7273 10.7007 12.5057 10.678 12.2862C10.6552 12.0668 10.5784 11.8564 10.4543 11.674C10.3303 11.4915 10.1629 11.3427 9.96722 11.2409C9.77152 11.1391 9.5536 11.0874 9.33301 11.0905H1.33301" stroke="white" stroke-width="1.5" stroke-linecap="round" stroke-linejoin="round"/>
</svg>
